<svg width="359" height="345" viewBox="0 0 359 345" fill="none" xmlns="http://www.w3.org/2000/svg">
<g opacity="0.15" filter="url(#filter0_d_220_700)">
<path d="M141.815 181.741L250.361 87.4577L228.912 153.237L295.859 132.772L5.32117 333.765L186.663 181.741H141.815Z" fill="url(#paint0_linear_220_700)" stroke="black"/>
<path d="M137.916 271.644L34.5706 334.5H241.262C271.94 334.5 302.576 297.956 314.059 279.684C319.692 263.848 330.828 226.768 330.308 205.134C329.788 183.5 304.526 167.372 291.96 162.012L228.912 210.981H252.961C262.841 219.167 263.144 227.061 262.061 229.984L252.961 257.027C248.801 264.628 235.195 269.939 228.912 271.644H137.916Z" fill="url(#paint1_linear_220_700)" stroke="black"/>
<path d="M102.818 61.8943C103.338 34.4131 90.4684 10.4889 83.9686 1.96193L296.51 0.500168C349.547 5.76252 355.44 45.5712 351.757 64.8178L256.861 126.212L268.561 86.7443C272.201 69.7878 260.978 63.1124 254.911 61.8943H102.818Z" fill="url(#paint2_linear_220_700)" stroke="black"/>
<path d="M159.365 81.6289H98.9173L38.4698 278.236L115.817 216.842L159.365 81.6289Z" fill="url(#paint3_linear_220_700)" stroke="black"/>
</g>
<defs>
<filter id="filter0_d_220_700" x="0" y="0" width="358.141" height="345" filterUnits="userSpaceOnUse" color-interpolation-filters="sRGB">
<feFlood flood-opacity="0" result="BackgroundImageFix"/>
<feColorMatrix in="SourceAlpha" type="matrix" values="0 0 0 0 0 0 0 0 0 0 0 0 0 0 0 0 0 0 127 0" result="hardAlpha"/>
<feOffset dy="5"/>
<feGaussianBlur stdDeviation="2.5"/>
<feComposite in2="hardAlpha" operator="out"/>
<feColorMatrix type="matrix" values="0 0 0 0 0 0 0 0 0 0 0 0 0 0 0 0 0 0 0.25 0"/>
<feBlend mode="normal" in2="BackgroundImageFix" result="effect1_dropShadow_220_700"/>
<feBlend mode="normal" in="SourceGraphic" in2="effect1_dropShadow_220_700" result="shape"/>
</filter>
<linearGradient id="paint0_linear_220_700" x1="150.59" y1="87.4577" x2="150.59" y2="333.765" gradientUnits="userSpaceOnUse">
<stop stop-color="#0162D1"/>
<stop offset="1" stop-color="#8C6CFF"/>
</linearGradient>
<linearGradient id="paint1_linear_220_700" x1="182.448" y1="162.012" x2="182.448" y2="334.5" gradientUnits="userSpaceOnUse">
<stop stop-color="#0162D1"/>
<stop offset="1" stop-color="#8C6CFF"/>
</linearGradient>
<linearGradient id="paint2_linear_220_700" x1="218.305" y1="0.500168" x2="218.305" y2="126.212" gradientUnits="userSpaceOnUse">
<stop stop-color="#0162D1"/>
<stop offset="1" stop-color="#8C6CFF"/>
</linearGradient>
<linearGradient id="paint3_linear_220_700" x1="98.9173" y1="81.6289" x2="98.9173" y2="278.236" gradientUnits="userSpaceOnUse">
<stop stop-color="#0162D1"/>
<stop offset="1" stop-color="#8C6CFF"/>
</linearGradient>
</defs>
</svg>
