<svg width="22" height="22" viewBox="0 0 22 22" fill="none" xmlns="http://www.w3.org/2000/svg">
<path d="M20.9579 4.94015C20.5555 5.35564 20.165 5.75892 20.1532 6.1622C20.1177 6.55326 20.52 6.95653 20.8987 7.33537C21.4667 7.9464 22.0229 8.49632 21.9993 9.09513C21.9756 9.69393 21.3721 10.3172 20.7685 10.9282L15.8811 15.9875L14.2007 14.2522L19.2301 9.07068L18.0941 7.89751L16.4137 9.62061L11.9759 5.03791L16.5202 0.35745C16.9817 -0.11915 17.7509 -0.11915 18.1887 0.35745L20.9579 3.21705C21.4194 3.66921 21.4194 4.46355 20.9579 4.94015ZM0 17.4173L11.3132 5.72226L15.751 10.305L4.43772 22H0V17.4173Z" fill="#8C6CFF"/>
</svg>
